<svg xmlns="http://www.w3.org/2000/svg" viewBox="0 0 460 250"><defs><style>.cls-1{fill:#fff}.cls-2{fill:#054752}.cls-3{fill:#ededed}</style></defs><path class="cls-1" d="M84.59 42.26h290.82a22.66 22.66 0 0 1 22.66 22.66v142.83H61.94V64.92a22.66 22.66 0 0 1 22.65-22.66Z"/><path class="cls-2" d="M399.09 208.77H60.91V64a22.79 22.79 0 0 1 22.76-22.77h292.66A22.79 22.79 0 0 1 399.09 64ZM63 206.72h334V64a20.73 20.73 0 0 0-20.71-20.71H83.67A20.73 20.73 0 0 0 63 64Z"/><rect class="cls-3" x="143.55" y="66.93" width="237.06" height="34.41" rx="17.21"/><rect x="187.51" y="77.59" width="172.81" height="13.09" rx="6.55" style="fill:#f53f5b"/><path d="M146.6 52.3a9.08 9.08 0 0 1 3.08 3.08l30.46 50.77a9 9 0 0 1-3.08 12.34 9.09 9.09 0 0 1-4.63 1.28h-60.92a9 9 0 0 1-7.71-13.62l30.46-50.77a9 9 0 0 1 12.34-3.08Z" style="fill-rule:evenodd;fill:#f53f5b"/><path d="M146 57.89a7.84 7.84 0 0 1 2.67 2.67L175 104.45a7.76 7.76 0 0 1-6.66 11.77h-52.7a7.77 7.77 0 0 1-6.64-11.77l26.34-43.89A7.77 7.77 0 0 1 146 57.89Zm-8 4.27-26.33 43.89a4.6 4.6 0 0 0-.67 2.4 4.66 4.66 0 0 0 4.67 4.66h52.67a4.74 4.74 0 0 0 2.4-.66 4.68 4.68 0 0 0 1.6-6.4L146 62.16a4.54 4.54 0 0 0-1.6-1.6 4.66 4.66 0 0 0-6.4 1.6Zm4 36a2.81 2.81 0 1 1-2.81 2.81 2.81 2.81 0 0 1 2.81-2.81Zm0-22.68a2.72 2.72 0 0 1 2.72 2.72s0 .1 0 .15l-.83 14.78a1.86 1.86 0 0 1-3.72 0l-.86-14.78a2.71 2.71 0 0 1 2.54-2.86Z" style="fill-rule:evenodd;fill:#fff"/><path class="cls-2" d="M63.09 133.64h334.97v2.05H63.09z"/><circle class="cls-2" cx="84.82" cy="68.75" r="9.24"/><path class="cls-1" d="M80.63 74a1 1 0 0 1-.72-.3 1 1 0 0 1 0-1.45l8.37-8.37a1 1 0 0 1 1.45 1.45l-8.37 8.37a1 1 0 0 1-.73.3Z"/><path class="cls-1" d="M89 74a1 1 0 0 1-.73-.3l-8.37-8.37a1 1 0 1 1 1.45-1.45l8.37 8.37a1 1 0 0 1 0 1.45 1 1 0 0 1-.72.3Z"/><rect class="cls-3" x="81.57" y="156.61" width="289.54" height="13.09" rx="6.55"/><rect class="cls-3" x="81.57" y="179.71" width="141.62" height="13.09" rx="6.55"/></svg>
